<svg width="25" height="24" viewBox="0 0 25 24" fill="none" xmlns="http://www.w3.org/2000/svg">
<path fill-rule="evenodd" clip-rule="evenodd" d="M15.25 4.5C15.25 3.94772 15.6977 3.5 16.25 3.5H20C20.5523 3.5 21 3.94772 21 4.5V8.25C21 8.80228 20.5523 9.25 20 9.25C19.4477 9.25 19 8.80228 19 8.25V5.5H16.25C15.6977 5.5 15.25 5.05228 15.25 4.5Z" fill="white"/>
<path fill-rule="evenodd" clip-rule="evenodd" d="M5 14.75C5.55228 14.75 6 15.1977 6 15.75V18.5H8.75C9.30228 18.5 9.75 18.9477 9.75 19.5C9.75 20.0523 9.30228 20.5 8.75 20.5H5C4.44772 20.5 4 20.0523 4 19.5V15.75C4 15.1977 4.44772 14.75 5 14.75Z" fill="white"/>
<path fill-rule="evenodd" clip-rule="evenodd" d="M20 14.75C20.5523 14.75 21 15.1977 21 15.75V19.5C21 20.0523 20.5523 20.5 20 20.5H16.25C15.6977 20.5 15.25 20.0523 15.25 19.5C15.25 18.9477 15.6977 18.5 16.25 18.5H19V15.75C19 15.1977 19.4477 14.75 20 14.75Z" fill="white"/>
<path fill-rule="evenodd" clip-rule="evenodd" d="M4 4.5C4 3.94772 4.44772 3.5 5 3.5H8.75C9.30228 3.5 9.75 3.94772 9.75 4.5C9.75 5.05228 9.30228 5.5 8.75 5.5H6V8.25C6 8.80228 5.55228 9.25 5 9.25C4.44772 9.25 4 8.80228 4 8.25V4.5Z" fill="white"/>
</svg>
