<svg width="14" height="27" viewBox="0 0 14 27" fill="none" xmlns="http://www.w3.org/2000/svg">
<path d="M0.508709 14.7083H3.34876V26.4004C3.34876 26.6312 3.53581 26.8183 3.76665 26.8183H8.58206C8.81291 26.8183 8.99995 26.6312 8.99995 26.4004V14.7634H12.2648C12.4771 14.7634 12.6557 14.6041 12.68 14.3933L13.1758 10.0888C13.1895 9.97041 13.1519 9.85181 13.0727 9.76297C12.9934 9.67404 12.8799 9.62314 12.7608 9.62314H9.00012V6.92492C9.00012 6.11154 9.43807 5.69909 10.3019 5.69909C10.425 5.69909 12.7608 5.69909 12.7608 5.69909C12.9916 5.69909 13.1787 5.51196 13.1787 5.2812V1.33015C13.1787 1.0993 12.9916 0.912257 12.7608 0.912257H9.37212C9.34822 0.911087 9.29515 0.909164 9.21692 0.909164C8.62895 0.909164 6.58522 1.02459 4.97084 2.50976C3.18211 4.15557 3.43075 6.12617 3.49018 6.46783V9.62306H0.508709C0.277867 9.62306 0.0908203 9.81011 0.0908203 10.0409V14.2904C0.0908203 14.5212 0.277867 14.7083 0.508709 14.7083Z" fill="#1B4B66"/>
</svg>
