<svg width="24" height="24" viewBox="0 0 24 24" fill="none" xmlns="http://www.w3.org/2000/svg">
<path fill-rule="evenodd" clip-rule="evenodd" d="M7.37099 0.703946C8.5685 0.649308 8.95079 0.636383 12 0.636383C15.0491 0.636383 15.4315 0.649308 16.6289 0.703946C17.824 0.758496 18.6401 0.948261 19.3543 1.22582C20.0926 1.51274 20.7187 1.89664 21.3428 2.5208C21.967 3.14495 22.3509 3.77107 22.6378 4.50937C22.9154 5.22355 23.1051 6.03965 23.1597 7.23471C23.2143 8.43217 23.2272 8.81451 23.2272 11.8637C23.2272 14.9128 23.2143 15.2952 23.1597 16.4926C23.1051 17.6877 22.9154 18.5038 22.6378 19.218C22.3509 19.9563 21.967 20.5824 21.3428 21.2066C20.7187 21.8307 20.0926 22.2146 19.3543 22.5015C18.6401 22.7791 17.824 22.9689 16.6289 23.0234C15.4315 23.078 15.0491 23.0909 12 23.0909C8.95079 23.0909 8.5685 23.078 7.37099 23.0234C6.17593 22.9689 5.35982 22.7791 4.64564 22.5015C3.90735 22.2146 3.28123 21.8307 2.65708 21.2066C2.03292 20.5824 1.64902 19.9562 1.3621 19.218C1.08454 18.5038 0.894773 17.6877 0.840224 16.4926C0.785585 15.2952 0.772705 14.9128 0.772705 11.8637C0.772705 8.81451 0.785585 8.43217 0.840224 7.23471C0.894773 6.03965 1.08454 5.22355 1.3621 4.50937C1.64902 3.77107 2.03292 3.14495 2.65708 2.5208C3.28123 1.89664 3.90735 1.51274 4.64564 1.22582C5.35982 0.948261 6.17593 0.758496 7.37099 0.703946ZM17.9931 7.21782C18.7372 7.21782 19.3404 6.61461 19.3404 5.87052C19.3404 5.12644 18.7372 4.52327 17.9931 4.52327C17.249 4.52327 16.6458 5.12644 16.6458 5.87052C16.6458 6.61461 17.249 7.21782 17.9931 7.21782ZM17.2394 11.8634C17.2394 14.757 14.8936 17.1028 12 17.1028C9.10636 17.1028 6.7606 14.757 6.7606 11.8634C6.7606 8.96976 9.10636 6.624 12 6.624C14.8936 6.624 17.2394 8.96976 17.2394 11.8634ZM15.4545 11.8637C15.4545 13.7716 13.9079 15.3182 12 15.3182C10.0921 15.3182 8.54543 13.7716 8.54543 11.8637C8.54543 9.9558 10.0921 8.40915 12 8.40915C13.9079 8.40915 15.4545 9.9558 15.4545 11.8637Z" fill="#1B4B66"/>
</svg>
