<svg width="26" height="21" viewBox="0 0 26 21" fill="none" xmlns="http://www.w3.org/2000/svg">
<path d="M25.091 2.68999C24.2013 3.08457 23.2451 3.35125 22.2415 3.47119C23.2659 2.85716 24.0525 1.8849 24.4229 0.726446C23.4644 1.29493 22.4026 1.70782 21.2725 1.93036C20.3675 0.96615 19.0781 0.363617 17.6512 0.363617C14.9113 0.363617 12.6899 2.58491 12.6899 5.3247C12.6899 5.71353 12.7338 6.09219 12.8184 6.45529C8.69514 6.2484 5.03952 4.27327 2.59259 1.27175C2.16555 2.00448 1.92089 2.85672 1.92089 3.76591C1.92089 5.48709 2.79683 7.00563 4.12803 7.89528C3.31471 7.86954 2.54978 7.64638 1.88082 7.27479C1.88047 7.29549 1.88047 7.31628 1.88047 7.33715C1.88047 9.74092 3.59059 11.7461 5.86018 12.2018C5.44383 12.3152 5.00556 12.3758 4.55304 12.3758C4.23337 12.3758 3.92255 12.3448 3.61969 12.2868C4.25097 14.2579 6.08316 15.6922 8.25412 15.7323C6.5562 17.0629 4.417 17.856 2.09266 17.856C1.69224 17.856 1.29731 17.8326 0.90918 17.7867C3.10473 19.1944 5.71255 20.0156 8.51426 20.0156C17.6396 20.0156 22.6297 12.4559 22.6297 5.89999C22.6297 5.68487 22.625 5.47091 22.6154 5.25818C23.5847 4.55871 24.4258 3.68489 25.091 2.68999Z" fill="#1B4B66"/>
</svg>
