<svg width="26" height="18" viewBox="0 0 26 18" fill="none" xmlns="http://www.w3.org/2000/svg">
<path fill-rule="evenodd" clip-rule="evenodd" d="M23.9923 1.686C24.3755 2.06898 24.6516 2.5456 24.7931 3.06841C25.6081 6.34738 25.4198 11.526 24.809 14.9316C24.6674 15.4544 24.3913 15.931 24.0082 16.314C23.625 16.6969 23.1481 16.9729 22.6251 17.1144C20.7102 17.6363 13.0034 17.6363 13.0034 17.6363C13.0034 17.6363 5.29649 17.6363 3.38164 17.1144C2.85858 16.9729 2.38172 16.6969 1.99856 16.314C1.6154 15.931 1.3393 15.4544 1.19776 14.9316C0.378016 11.6668 0.602733 6.485 1.18194 3.08423C1.32347 2.56142 1.59957 2.0848 1.98273 1.70182C2.3659 1.31885 2.84275 1.04288 3.36581 0.901412C5.28066 0.379434 12.9875 0.363617 12.9875 0.363617C12.9875 0.363617 20.6944 0.363617 22.6093 0.885595C23.1323 1.02706 23.6092 1.30303 23.9923 1.686ZM16.7013 9L10.5325 12.7013V5.2987L16.7013 9Z" fill="#1B4B66"/>
</svg>
