<svg width="18" height="18" viewBox="0 0 18 18" fill="none" xmlns="http://www.w3.org/2000/svg">
<path d="M11.2495 16.4993V11.9992C11.2495 11.8003 11.1704 11.6095 11.0298 11.4689C10.8891 11.3282 10.6984 11.2492 10.4995 11.2492H7.49945C7.30054 11.2492 7.10977 11.3282 6.96912 11.4689C6.82847 11.6095 6.74945 11.8003 6.74945 11.9992V16.4993C6.74945 16.6982 6.67045 16.8889 6.52981 17.0296C6.38918 17.1702 6.19844 17.2492 5.99954 17.2493L1.50009 17.2499C1.40159 17.2499 1.30406 17.2305 1.21305 17.1928C1.12205 17.1551 1.03936 17.0999 0.969703 17.0302C0.900049 16.9606 0.844796 16.8779 0.807099 16.7869C0.769402 16.6959 0.75 16.5984 0.75 16.4999V7.8317C0.75 7.72721 0.771834 7.62388 0.814101 7.52832C0.856369 7.43276 0.918138 7.34709 0.995448 7.27679L8.49493 0.457906C8.63299 0.332381 8.81287 0.262824 8.99946 0.262817C9.18605 0.262811 9.36594 0.332357 9.504 0.457872L17.0045 7.27679C17.0818 7.34708 17.1436 7.43276 17.1859 7.52832C17.2282 7.62389 17.25 7.72724 17.25 7.83173V16.4999C17.25 16.5984 17.2306 16.6959 17.1929 16.7869C17.1552 16.8779 17.1 16.9606 17.0303 17.0302C16.9606 17.0999 16.878 17.1551 16.7869 17.1928C16.6959 17.2305 16.5984 17.2499 16.4999 17.2499L11.9994 17.2493C11.8005 17.2493 11.6097 17.1702 11.4691 17.0296C11.3285 16.8889 11.2494 16.6982 11.2495 16.4993V16.4993Z" fill="#17494D"/>
</svg>
