<svg width="40" height="44" viewBox="0 0 40 44" fill="none" xmlns="http://www.w3.org/2000/svg">
<rect width="40" height="44" rx="8" fill="#1B4B66"/>
<g clip-path="url(#clip0_302_831)">
<path d="M16.6893 30.25H12.5C12.3011 30.25 12.1103 30.171 11.9697 30.0303C11.829 29.8897 11.75 29.6989 11.75 29.5V25.3107C11.75 25.2122 11.7694 25.1147 11.8071 25.0237C11.8448 24.9327 11.9 24.85 11.9697 24.7803L23.2197 13.5303C23.3603 13.3897 23.5511 13.3107 23.75 13.3107C23.9489 13.3107 24.1397 13.3897 24.2803 13.5303L28.4697 17.7197C28.6103 17.8603 28.6893 18.0511 28.6893 18.25C28.6893 18.4489 28.6103 18.6397 28.4697 18.7803L17.2197 30.0303C17.15 30.1 17.0673 30.1552 16.9764 30.1929C16.8854 30.2306 16.7878 30.25 16.6893 30.25Z" stroke="white" stroke-width="2" stroke-linecap="round" stroke-linejoin="round"/>
<path d="M20.75 16L26 21.25" stroke="white" stroke-width="2" stroke-linecap="round" stroke-linejoin="round"/>
<path d="M18.1544 29.1544L13 24" stroke="white" stroke-width="2" stroke-linecap="round" stroke-linejoin="round"/>
</g>
<defs>
<clipPath id="clip0_302_831">
<rect width="24" height="24" fill="white" transform="translate(8 10)"/>
</clipPath>
</defs>
</svg>
