<svg width="239" height="239" viewBox="0 0 239 239" fill="none" xmlns="http://www.w3.org/2000/svg">
<mask id="mask0_0_1" style="mask-type:alpha" maskUnits="userSpaceOnUse" x="0" y="0" width="239" height="239">
<rect width="239" height="239" rx="16" fill="#F4F4F4"/>
</mask>
<g mask="url(#mask0_0_1)">
<rect width="239" height="239" rx="16" fill="#F4F4F4"/>
<path d="M173.5 117L239.5 -30L-15.5 -38L-29 174.5L173.5 117Z" fill="#FFE3BD"/>
</g>
<g filter="url(#filter0_d_0_1)">
<path d="M119.006 58.0763C137.563 41.4188 166.24 41.9717 184.117 59.8772C201.987 77.7905 202.603 106.319 185.981 124.928L125.359 185.624C121.843 189.144 116.138 189.143 112.623 185.623L52.0157 124.928C35.3944 106.319 36.0185 77.7431 53.8801 59.8772C71.7733 41.9954 100.394 41.3951 119.006 58.0763Z" fill="#1B4B66"/>
</g>
<mask id="mask1_0_1" style="mask-type:alpha" maskUnits="userSpaceOnUse" x="40" y="46" width="158" height="143">
<path d="M119.006 58.0763C137.563 41.4188 166.24 41.9717 184.117 59.8772C201.987 77.7905 202.603 106.319 185.981 124.928L125.359 185.624C121.843 189.144 116.138 189.143 112.623 185.623L52.0157 124.928C35.3944 106.319 36.0185 77.7431 53.8801 59.8772C71.7733 41.9954 100.394 41.3951 119.006 58.0763Z" fill="#1B4B66"/>
</mask>
<g mask="url(#mask1_0_1)">
<path d="M130.172 109.981C57.9892 117.376 30.1282 161.251 29.3783 162.45C47.3852 181.219 84.5078 220.453 88.9426 227.231C94.486 235.702 170.758 217.104 173.194 216.543C175.63 215.982 232.976 92.9668 230.992 88.8062C229.404 85.4777 210.979 53.9083 201.965 38.5396C202.095 59.8888 187.918 104.066 130.172 109.981Z" fill="#113F43"/>
</g>
<circle cx="171.5" cy="146.5" r="30.5" fill="#06272A"/>
<path fill-rule="evenodd" clip-rule="evenodd" d="M146.699 164.258C152.234 171.973 161.28 177 171.5 177C188.344 177 202 163.345 202 146.5C202 136.096 196.791 126.91 188.839 121.405C187.951 122.613 186.998 123.789 185.981 124.928L146.699 164.258Z" fill="#E8D0AF"/>
<circle cx="168.5" cy="143.5" r="30.5" fill="#246E74"/>
<path d="M166.055 150.36C164.97 150.36 164.083 149.495 164.056 148.41L163.966 144.771C163.936 143.558 164.912 142.558 166.126 142.558C167.763 142.558 169.255 142.416 170.603 142.132C171.95 141.848 173.025 141.297 173.828 140.477C174.63 139.657 175.031 138.459 175.031 136.883C175.031 135.37 174.566 134.188 173.635 133.337C172.705 132.454 171.469 132.013 169.929 132.013C168.324 132.013 167.073 132.454 166.174 133.337C165.719 133.768 165.379 134.28 165.154 134.874C164.763 135.907 163.931 136.836 162.826 136.836H160.968C159.877 136.836 158.962 135.954 159.141 134.877C159.327 133.759 159.698 132.726 160.253 131.776C161.12 130.294 162.371 129.128 164.008 128.277C165.677 127.426 167.666 127 169.977 127C172.127 127 174.02 127.394 175.657 128.182C177.326 128.97 178.625 130.105 179.556 131.587C180.519 133.037 181 134.818 181 136.93C181 139.106 180.503 140.903 179.508 142.321C178.545 143.74 177.213 144.796 175.512 145.49C173.844 146.183 171.902 146.546 169.688 146.577L169.617 148.437C169.576 149.511 168.693 150.36 167.618 150.36H166.055ZM166.848 161C165.725 161 164.794 160.653 164.056 159.96C163.35 159.266 162.997 158.431 162.997 157.453C162.997 156.445 163.35 155.593 164.056 154.9C164.794 154.206 165.725 153.86 166.848 153.86C167.971 153.86 168.886 154.206 169.592 154.9C170.298 155.593 170.651 156.445 170.651 157.453C170.651 158.431 170.298 159.266 169.592 159.96C168.886 160.653 167.971 161 166.848 161Z" fill="white"/>
<defs>
<filter id="filter0_d_0_1" x="40" y="46" width="164" height="148.264" filterUnits="userSpaceOnUse" color-interpolation-filters="sRGB">
<feFlood flood-opacity="0" result="BackgroundImageFix"/>
<feColorMatrix in="SourceAlpha" type="matrix" values="0 0 0 0 0 0 0 0 0 0 0 0 0 0 0 0 0 0 127 0" result="hardAlpha"/>
<feOffset dx="6" dy="6"/>
<feComposite in2="hardAlpha" operator="out"/>
<feColorMatrix type="matrix" values="0 0 0 0 0.909804 0 0 0 0 0.815686 0 0 0 0 0.686275 0 0 0 1 0"/>
<feBlend mode="normal" in2="BackgroundImageFix" result="effect1_dropShadow_0_1"/>
<feBlend mode="normal" in="SourceGraphic" in2="effect1_dropShadow_0_1" result="shape"/>
</filter>
</defs>
</svg>
