<svg width="30" height="30" viewBox="0 0 30 30" fill="none" xmlns="http://www.w3.org/2000/svg">
<rect width="30" height="30" rx="4" fill="#F1F1F1"/>
<g clip-path="url(#clip0_919_5125)">
<path d="M5 12H8V24H5C4.73478 24 4.48043 23.8946 4.29289 23.7071C4.10536 23.5196 4 23.2652 4 23V13C4 12.7348 4.10536 12.4804 4.29289 12.2929C4.48043 12.1054 4.73478 12 5 12ZM10.293 10.707L16.693 4.307C16.7781 4.22169 16.8911 4.16997 17.0112 4.16133C17.1314 4.1527 17.2506 4.18773 17.347 4.26L18.2 4.9C18.4369 5.07785 18.6158 5.32185 18.7143 5.60126C18.8127 5.88066 18.8262 6.18295 18.753 6.47L17.6 11H24C24.5304 11 25.0391 11.2107 25.4142 11.5858C25.7893 11.9609 26 12.4696 26 13V15.104C26.0003 15.3654 25.9493 15.6242 25.85 15.866L22.755 23.381C22.6795 23.5642 22.5513 23.7209 22.3866 23.8311C22.2219 23.9413 22.0282 24.0001 21.83 24H11C10.7348 24 10.4804 23.8946 10.2929 23.7071C10.1054 23.5196 10 23.2652 10 23V11.414C10.0001 11.1488 10.1055 10.8945 10.293 10.707Z" fill="#1B4B66"/>
</g>
<defs>
<clipPath id="clip0_919_5125">
<rect width="24" height="24" fill="white" transform="translate(3 3)"/>
</clipPath>
</defs>
</svg>
